<svg xmlns="http://www.w3.org/2000/svg" version="1.1" xmlns:xlink="http://www.w3.org/1999/xlink" xmlns:svgjs="http://svgjs.dev/svgjs" width="1500" height="371" viewBox="0 0 1500 371"><g transform="matrix(1,0,0,1,-0.9090909090909918,0.8373544973544824)"><svg viewBox="0 0 396 98" data-background-color="#ffffff" preserveAspectRatio="xMidYMid meet" height="371" width="1500" xmlns="http://www.w3.org/2000/svg" xmlns:xlink="http://www.w3.org/1999/xlink"><g id="tight-bounds" transform="matrix(1,0,0,1,0.2400000000000091,-0.22118798043325683)"><svg viewBox="0 0 395.52 98.44237596086651" height="98.44237596086651" width="395.52"><g><svg viewBox="0 0 395.52 98.44237596086651" height="98.44237596086651" width="395.52"><g><svg viewBox="0 0 395.52 98.44237596086651" height="98.44237596086651" width="395.52"><g id="textblocktransform"><svg viewBox="0 0 395.52 98.44237596086651" height="98.44237596086651" width="395.52" id="textblock"><g><svg viewBox="0 0 395.52 98.44237596086651" height="98.44237596086651" width="395.52"><g transform="matrix(1,0,0,1,0,0)"><svg width="395.52" viewBox="-1.53 -40.5 214.64000000000001 53.43" height="98.44237596086651" data-palette-color="#556970"><path d="M4.85-32.5L4.85-37.5 9.9-37.5 9.9-32.5 4.85-32.5ZM-1.53 12.23L-0.55 8.63Q-0.28 8.72 0.35 8.83 0.98 8.93 1.75 8.93L1.75 8.93Q2.68 8.93 3.3 8.44 3.93 7.95 4.3 7.1 4.67 6.25 4.84 5.11 5 3.98 5 2.68L5 2.68 5-26.38 9.75-26.88 9.75 2.43Q9.75 4.65 9.46 6.58 9.18 8.5 8.33 9.91 7.48 11.33 5.96 12.13 4.45 12.93 2 12.93L2 12.93Q0.48 12.93-0.39 12.65-1.25 12.38-1.53 12.23L-1.53 12.23ZM29.97 0.43L29.97 0.43Q27.2 0.43 24.91-0.66 22.62-1.75 20.97-3.66 19.32-5.58 18.41-8.19 17.5-10.8 17.5-13.83L17.5-13.83Q17.5-16.85 18.37-19.44 19.25-22.03 20.87-23.91 22.5-25.8 24.81-26.86 27.12-27.93 29.97-27.93L29.97-27.93Q32.75-27.93 35.05-26.86 37.35-25.8 39-23.91 40.65-22.03 41.57-19.44 42.5-16.85 42.5-13.83L42.5-13.83Q42.5-10.8 41.61-8.19 40.72-5.58 39.1-3.66 37.47-1.75 35.15-0.66 32.82 0.43 29.97 0.43ZM37.75-13.15L37.75-13.15Q37.75-15.18 37.31-17.13 36.87-19.07 35.92-20.61 34.97-22.15 33.47-23.1 31.97-24.05 29.87-24.05L29.87-24.05Q27.87-24.05 26.42-23.23 24.97-22.4 24.05-21.03 23.12-19.65 22.69-17.9 22.25-16.15 22.25-14.3L22.25-14.3Q22.25-12.28 22.69-10.33 23.12-8.38 24.06-6.85 25-5.33 26.48-4.39 27.97-3.45 30.07-3.45L30.07-3.45Q32.05-3.45 33.5-4.28 34.95-5.1 35.9-6.46 36.85-7.83 37.3-9.58 37.75-11.33 37.75-13.15ZM54.75-21.13L54.75-4.28Q55.22-4.13 55.85-3.99 56.47-3.85 57.18-3.76 57.9-3.68 58.65-3.63 59.4-3.58 60.1-3.58L60.1-3.58Q61.62-3.58 62.78-4.08 63.95-4.58 64.8-5.41 65.65-6.25 66.21-7.39 66.77-8.53 67.12-9.79 67.47-11.05 67.61-12.4 67.75-13.75 67.75-15.03L67.75-15.03Q67.75-17.53 67.27-19.23 66.8-20.93 65.98-21.98 65.17-23.03 64.11-23.48 63.05-23.93 61.87-23.93L61.87-23.93Q59.9-23.93 58.1-23.16 56.3-22.4 54.75-21.13L54.75-21.13ZM50-0.88L50-35.5 49.5-40 54.75-40.5 54.75-24.35 56.87-26.63Q58.15-27.23 59.55-27.58 60.95-27.93 62.35-27.93L62.35-27.93Q64.42-27.93 66.26-27.08 68.09-26.23 69.48-24.56 70.87-22.9 71.68-20.48 72.5-18.05 72.5-14.9L72.5-14.9Q72.5-11.45 71.56-8.63 70.62-5.8 68.93-3.79 67.25-1.78 64.93-0.68 62.62 0.43 59.87 0.43L59.87 0.43Q58.3 0.43 56.77 0.31 55.25 0.2 53.92 0.01 52.6-0.18 51.57-0.41 50.55-0.65 50-0.88L50-0.88ZM111.52 0.03L110.09 3.63Q108.69 3.63 107.31 3.44 105.92 3.25 104.59 2.6 103.27 1.95 102.02 0.74 100.77-0.48 99.67-2.55L99.67-2.55 99.42-3Q99.29-3.23 99.17-3.43L99.17-3.43 98.92 0.03Q97.99 0.23 97.02 0.33 96.04 0.43 94.99 0.43L94.99 0.43Q91.04 0.43 87.92-1.03 84.79-2.48 82.61-5.04 80.42-7.6 79.26-11.11 78.09-14.63 78.09-18.75L78.09-18.75Q78.09-22.88 79.22-26.39 80.34-29.9 82.51-32.46 84.67-35.02 87.82-36.48 90.97-37.93 94.99-37.93L94.99-37.93Q98.92-37.93 102.06-36.48 105.19-35.02 107.38-32.46 109.57-29.9 110.73-26.39 111.89-22.88 111.89-18.75L111.89-18.75Q111.89-16.13 111.43-13.74 110.97-11.35 110.07-9.29 109.17-7.23 107.86-5.53 106.54-3.83 104.84-2.58L104.84-2.58Q105.57-1.65 106.26-1.14 106.94-0.63 107.73-0.36 108.52-0.1 109.43-0.04 110.34 0.03 111.52 0.03L111.52 0.03ZM106.69-17.98L106.69-17.98Q106.69-19.98 106.42-21.91 106.14-23.85 105.54-25.59 104.94-27.33 103.99-28.81 103.04-30.3 101.73-31.38 100.42-32.45 98.71-33.06 96.99-33.68 94.84-33.68L94.84-33.68Q91.77-33.68 89.58-32.49 87.39-31.3 85.99-29.33 84.59-27.35 83.94-24.83 83.29-22.3 83.29-19.63L83.29-19.63Q83.29-17.6 83.58-15.65 83.87-13.7 84.47-11.94 85.07-10.18 86.01-8.69 86.94-7.2 88.26-6.13 89.57-5.05 91.28-4.44 92.99-3.83 95.14-3.83L95.14-3.83Q96.09-3.83 96.97-3.95 97.84-4.08 98.62-4.3L98.62-4.3Q97.89-5.43 97.21-6.08 96.52-6.73 95.77-7.05 95.02-7.38 94.12-7.45 93.22-7.53 92.04-7.53L92.04-7.53 93.47-11.13Q94.84-11.13 96.14-10.83 97.44-10.53 98.71-9.78 99.97-9.03 101.19-7.73 102.42-6.43 103.62-4.42L103.62-4.42 103.62-7.85Q105.22-9.88 105.96-12.53 106.69-15.18 106.69-17.98ZM135.24-6.45L135.24-27.5 139.99-28 139.99 0 135.24 0 135.24-4.08 133.72-1.4Q133.27-1.1 132.65-0.78 132.04-0.45 131.27-0.19 130.49 0.08 129.56 0.25 128.64 0.43 127.62 0.43L127.62 0.43Q125.62 0.43 124.18-0.3 122.74-1.03 121.82-2.33 120.89-3.63 120.44-5.41 119.99-7.2 119.99-9.3L119.99-9.3 119.99-27.5 124.74-28 124.74-9.3Q124.74-6.6 125.83-5.09 126.92-3.58 129.24-3.58L129.24-3.58Q130.09-3.58 130.92-3.85 131.74-4.13 132.52-4.55 133.29-4.98 133.98-5.48 134.67-5.98 135.24-6.45L135.24-6.45ZM166.41-5.63L169.14-3.23Q168.36-2.43 167.44-1.75 166.51-1.07 165.39-0.59 164.26-0.1 162.9 0.16 161.54 0.43 159.86 0.43L159.86 0.43Q156.54 0.43 154.19-0.75 151.84-1.93 150.35-3.9 148.86-5.88 148.18-8.43 147.49-10.98 147.49-13.75L147.49-13.75Q147.49-15.53 147.81-17.26 148.14-19 148.79-20.58 149.44-22.15 150.41-23.5 151.39-24.85 152.69-25.83 153.99-26.8 155.63-27.36 157.26-27.93 159.24-27.93L159.24-27.93Q161.94-27.93 163.91-27.05 165.89-26.18 167.19-24.6 168.49-23.03 169.11-20.83 169.74-18.63 169.74-15.95L169.74-15.95Q169.74-15.18 169.69-14.25 169.64-13.33 169.54-12.5L169.54-12.5 152.24-12.5Q152.24-10.63 152.75-9 153.26-7.38 154.19-6.16 155.11-4.95 156.43-4.26 157.74-3.58 159.36-3.58L159.36-3.58Q160.96-3.58 162.15-3.81 163.34-4.05 164.19-4.39 165.04-4.73 165.58-5.08 166.11-5.43 166.41-5.63L166.41-5.63ZM155.86-16.25L164.99-16.25Q165.01-16.53 165.03-16.8 165.04-17.07 165.04-17.35L165.04-17.35Q165.04-18.78 164.71-19.98 164.39-21.18 163.73-22.06 163.06-22.95 162.04-23.45 161.01-23.95 159.61-23.95L159.61-23.95Q157.94-23.95 156.75-23.41 155.56-22.88 154.75-22.04 153.94-21.2 153.45-20.2 152.96-19.2 152.71-18.3L152.71-18.3 151.41-15.58 155.86-16.25ZM190.46-26.18L189.01-22.98Q188.56-23.2 187.94-23.43 187.31-23.65 186.64-23.83 185.96-24 185.27-24.1 184.59-24.2 183.96-24.2L183.96-24.2Q181.31-24.2 180.21-23.41 179.11-22.63 179.11-21.05L179.11-21.05Q179.11-20 179.84-19.31 180.56-18.63 181.71-18.07 182.86-17.53 184.27-17.04 185.69-16.55 187.04-15.88L187.04-15.88Q188.01-15.4 189.01-14.75 190.01-14.1 190.81-13.23 191.61-12.35 192.11-11.25 192.61-10.15 192.61-8.78L192.61-8.78Q192.61-6.25 191.76-4.5 190.91-2.75 189.45-1.66 187.99-0.58 186.02-0.08 184.06 0.43 181.84 0.43L181.84 0.43Q180.99 0.43 179.91 0.26 178.84 0.1 177.76-0.19 176.69-0.48 175.71-0.88 174.74-1.28 174.09-1.73L174.09-1.73 175.74-5.03Q176.34-4.73 177.16-4.46 177.99-4.2 178.86-4 179.74-3.8 180.6-3.69 181.46-3.58 182.14-3.58L182.14-3.58Q183.29-3.58 184.35-3.81 185.41-4.05 186.22-4.58 187.04-5.1 187.52-5.94 188.01-6.78 188.01-8L188.01-8Q188.01-8.93 187.62-9.63 187.24-10.33 186.57-10.86 185.91-11.4 185.04-11.85 184.16-12.3 183.19-12.71 182.21-13.13 181.19-13.56 180.16-14 179.24-14.53L179.24-14.53Q178.36-15.03 177.55-15.63 176.74-16.23 176.11-16.98 175.49-17.73 175.11-18.66 174.74-19.6 174.74-20.8L174.74-20.8Q174.74-22.7 175.41-24.06 176.09-25.43 177.31-26.28 178.54-27.13 180.26-27.53 181.99-27.93 184.06-27.93L184.06-27.93Q185.01-27.93 185.94-27.78 186.86-27.63 187.71-27.39 188.56-27.15 189.26-26.83 189.96-26.5 190.46-26.18L190.46-26.18ZM204.73-23.5L204.73-9.4Q204.73-7.75 204.92-6.64 205.11-5.53 205.47-4.84 205.83-4.15 206.37-3.86 206.91-3.58 207.61-3.58L207.61-3.58Q208.16-3.58 208.61-3.64 209.06-3.7 209.38-3.8L209.38-3.8Q209.76-3.9 210.06-4.03L210.06-4.03 211.78-1Q211.58-0.8 211.15-0.56 210.71-0.33 210.11-0.1 209.51 0.13 208.75 0.28 207.98 0.43 207.11 0.43L207.11 0.43Q204.86 0.43 203.46-0.4 202.06-1.23 201.28-2.65 200.51-4.08 200.25-5.96 199.98-7.85 199.98-10L199.98-10 199.98-23.5 196.23-23.5 196.23-27.5 199.98-27.5 199.98-32.73 204.61-35.5 204.61-27.5 213.11-27.5 212.61-23.5 204.73-23.5Z" opacity="1" transform="matrix(1,0,0,1,0,0)" fill="#556970" class="wordmark-text-0" data-fill-palette-color="primary" id="text-0"></path></svg></g></svg></g></svg></g></svg></g><g></g></svg></g><defs></defs></svg><rect width="395.52" height="98.44237596086651" fill="none" stroke="none" visibility="hidden"></rect></g></svg></g></svg>